<?xml version="1.0" encoding="utf-8"?>
<!-- Generator: Adobe Illustrator 27.1.1, SVG Export Plug-In . SVG Version: 6.00 Build 0)  -->
<svg version="1.1" id="Layer_1" xmlns="http://www.w3.org/2000/svg" xmlns:xlink="http://www.w3.org/1999/xlink" x="0px" y="0px"
	 viewBox="0 0 30 31" style="enable-background:new 0 0 30 31;" xml:space="preserve">
<style type="text/css">
	.st0{fill:#2B4435;}
</style>
<g>
	<path class="st0" d="M17.4,15l-4-2.2c-0.2-0.1-0.7,0-0.7,0.2v4.2c0,0.2,0.6,0.3,0.7,0.2l4.1-2.1C17.8,15.3,17.6,15.1,17.4,15z"/>
	<path class="st0" d="M15,0C6.7,0,0,6.8,0,15.1c0,8.3,6.7,15.1,15,15.1c8.3,0,15-6.8,15-15.1C30,6.8,23.3,0,15,0z M23,17.2
		c0,2-1.6,3.6-3.6,3.6h-9.2c-2,0-3.6-1.6-3.6-3.6v-4.3c0-2,1.6-3.6,3.6-3.6h9.2c2,0,3.6,1.6,3.6,3.6V17.2z"/>
</g>
</svg>
