<?xml version="1.0" encoding="UTF-8"?>
<svg id="Layer_1" data-name="Layer 1" xmlns="http://www.w3.org/2000/svg" viewBox="0 0 30 31">
  <defs>
    <style>
      .cls-1 {
        fill: #2b4435;
      }
    </style>
  </defs>
  <path class="cls-1" d="m18.51,7.88h-7.02c-2,0-3.63,1.64-3.63,3.65v7.06c0,2.01,1.63,3.65,3.63,3.65h7.02c2,0,3.63-1.64,3.63-3.65v-7.06c0-2.01-1.63-3.65-3.63-3.65Zm-3.44,11.53c-2.39,0-4.33-1.95-4.33-4.35s1.94-4.35,4.33-4.35,4.33,1.95,4.33,4.35-1.94,4.35-4.33,4.35Zm4.58-7.96c-.57,0-1.03-.46-1.03-1.04s.46-1.04,1.03-1.04,1.03.46,1.03,1.04-.46,1.04-1.03,1.04Z"/>
  <path class="cls-1" d="m15.07,12.28c-1.53,0-2.77,1.25-2.77,2.79s1.24,2.79,2.77,2.79,2.77-1.25,2.77-2.79-1.24-2.79-2.77-2.79Z"/>
  <path class="cls-1" d="m15,0C6.72,0,0,6.75,0,15.08s6.72,15.08,15,15.08,15-6.75,15-15.08S23.28,0,15,0Zm8.79,18.59c0,2.93-2.37,5.31-5.28,5.31h-7.02c-2.91,0-5.28-2.38-5.28-5.31v-7.06c0-2.93,2.37-5.31,5.28-5.31h7.02c2.91,0,5.28,2.38,5.28,5.31v7.06Z"/>
</svg>