<?xml version="1.0" encoding="utf-8"?>
<!-- Generator: Adobe Illustrator 27.1.1, SVG Export Plug-In . SVG Version: 6.00 Build 0)  -->
<svg version="1.1" id="Layer_1" xmlns="http://www.w3.org/2000/svg" xmlns:xlink="http://www.w3.org/1999/xlink" x="0px" y="0px"
	 viewBox="0 0 30 30" style="enable-background:new 0 0 30 30;" xml:space="preserve">
<style type="text/css">
	.st0{fill:#2B4435;}
</style>
<path class="st0" d="M30,15.1C30,6.8,23.3,0,15,0C6.7,0,0,6.8,0,15.1C0,22.6,5.5,28.9,12.7,30V19.4H8.8v-4.4h3.8v-3.3
	c0-3.8,2.2-5.9,5.7-5.9c1.6,0,3.4,0.3,3.4,0.3v3.7h-1.9c-1.9,0-2.4,1.2-2.4,2.4v2.8h4.2l-0.7,4.4h-3.5V30C24.5,28.9,30,22.6,30,15.1
	L30,15.1z"/>
</svg>
