
<svg version="1.1" id="Layer_1" xmlns="http://www.w3.org/2000/svg" xmlns:xlink="http://www.w3.org/1999/xlink" x="0px" y="0px"
	 viewBox="0 0 913 137" style="enable-background:new 0 0 913 137;" xml:space="preserve">
<style type="text/css">
	.st0{fill:#FFFFFF;filter:url(#Adobe_OpacityMaskFilter);}
	.st1{mask:url(#path-1-inside-1_589_51780_00000067237929069869964620000010029412355941655231_);fill:#99B8A3;}
</style>
<defs>
	<filter id="Adobe_OpacityMaskFilter" filterUnits="userSpaceOnUse" x="-0.8" y="-0.8" width="913.5" height="138.4">
		<feColorMatrix  type="matrix" values="1 0 0 0 0  0 1 0 0 0  0 0 1 0 0  0 0 0 1 0"/>
	</filter>
</defs>
<mask maskUnits="userSpaceOnUse" x="-0.8" y="-0.8" width="913.5" height="138.4" id="path-1-inside-1_589_51780_00000067237929069869964620000010029412355941655231_">
	<path class="st0" d="M0,60.1c33.8,45.5,88,71.6,142.7,75.8c54.7,4.2,109.7-12.2,157.9-39.7C356,64.5,405.5,17.4,467.5,5
		c37.5-7.5,80.3-7.3,116.1,8.2c36.8,15.9,66.2,45.6,100.4,66.4c63.2,38.6,169.3,58,228.1,1.9"/>
</mask>
<path class="st1" d="M300.6,96.1l0.5,0.9v0L300.6,96.1z M467.5,5l0.2,1l0,0L467.5,5z M583.5,13.2l0.4-0.9v0L583.5,13.2z M683.9,79.6
	l-0.5,0.9h0L683.9,79.6z M-0.8,60.7c34,45.7,88.5,72,143.4,76.2l0.2-2c-54.5-4.2-108.4-30.2-142-75.4L-0.8,60.7z M142.6,136.9
	c55,4.2,110.2-12.2,158.5-39.9l-1-1.7c-48.1,27.5-102.9,43.8-157.4,39.6L142.6,136.9z M301.1,97c27.7-15.8,54.1-35.6,81-52.8
	c27-17.3,54.8-32,85.5-38.2l-0.4-2c-31.1,6.3-59.1,21.2-86.2,38.5c-27.1,17.3-53.2,36.9-80.9,52.8L301.1,97z M467.7,6
	c37.4-7.5,80-7.2,115.5,8.1l0.8-1.8c-36-15.6-79-15.8-116.7-8.2L467.7,6z M583.1,14.1c18.3,7.9,34.8,19.2,51,31.2
	c16.2,12,32.1,24.7,49.2,35.1l1-1.7c-17-10.4-32.8-23-49.1-35c-16.2-12-32.9-23.5-51.4-31.5L583.1,14.1z M683.4,80.4
	c31.7,19.4,74.2,34,116.1,36.6c41.9,2.7,83.5-6.5,113.2-34.9l-1.4-1.4c-29.2,27.8-70.1,37-111.7,34.3C758,112.4,715.9,98,684.4,78.7
	L683.4,80.4z"/>
</svg>
